<?xml version="1.0" encoding="utf-8"?>
<!-- Generator: Adobe Illustrator 25.2.1, SVG Export Plug-In . SVG Version: 6.00 Build 0)  -->
<svg version="1.1" id="Layer_1" xmlns="http://www.w3.org/2000/svg" xmlns:xlink="http://www.w3.org/1999/xlink" x="0px" y="0px"
	 viewBox="0 0 25 25" style="enable-background:new 0 0 25 25;" xml:space="preserve">
<style type="text/css">
	.st0{fill:#999999;}
	.st1{fill:#FFFFFF;}
</style>
<g>
	<path class="st0" d="M12.3278,9C14.3527,9,16,10.6473,16,12.6722s-1.6473,3.6722-3.6722,3.6722s-3.6722-1.6473-3.6722-3.6722
		S10.303,9,12.3278,9 M12.3278,1C5.8815,1,0.6556,6.2258,0.6556,12.6722s5.2258,11.6722,11.6722,11.6722S24,19.1186,24,12.6722
		S18.7742,1,12.3278,1L12.3278,1z"/>
</g>
<g>
	<path d="M12.3278,2.509c5.604,0,10.1632,4.5592,10.1632,10.1632s-4.5592,10.1632-10.1632,10.1632S2.1647,18.2762,2.1647,12.6722
		S6.7238,2.509,12.3278,2.509 M12.3278,2.459c-5.6406,0-10.2132,4.5726-10.2132,10.2132s4.5726,10.2132,10.2132,10.2132
		S22.541,18.3128,22.541,12.6722S17.9684,2.459,12.3278,2.459L12.3278,2.459z"/>
</g>
<g>
	<path d="M12.3278,3.9681c4.7995,0,8.7041,3.9047,8.7041,8.7042s-3.9047,8.7042-8.7041,8.7042s-8.7041-3.9047-8.7041-8.7042
		S7.5283,3.9681,12.3278,3.9681 M12.3278,3.9181c-4.8348,0-8.7541,3.9194-8.7541,8.7542c0,4.8348,3.9194,8.7541,8.7541,8.7541
		s8.7541-3.9194,8.7541-8.7541C21.082,7.8374,17.1626,3.9181,12.3278,3.9181L12.3278,3.9181z"/>
</g>
<g>
	<path d="M12.3278,5.4271c3.995,0,7.2451,3.2502,7.2451,7.2451s-3.2501,7.2451-7.2451,7.2451s-7.2451-3.2501-7.2451-7.2451
		S8.3328,5.4271,12.3278,5.4271 M12.3278,5.3771c-4.029,0-7.2951,3.2661-7.2951,7.2951s3.2661,7.2951,7.2951,7.2951
		s7.2951-3.2661,7.2951-7.2951S16.3568,5.3771,12.3278,5.3771L12.3278,5.3771z"/>
</g>
<g>
	<path d="M12.3278,6.8861c3.1905,0,5.7861,2.5956,5.7861,5.7861s-2.5956,5.7861-5.7861,5.7861s-5.7861-2.5956-5.7861-5.7861
		S9.1374,6.8861,12.3278,6.8861 M12.3278,6.8361c-3.2232,0-5.8361,2.6129-5.8361,5.8361s2.6129,5.8361,5.8361,5.8361
		c3.2232,0,5.8361-2.6129,5.8361-5.8361S15.551,6.8361,12.3278,6.8361L12.3278,6.8361z"/>
</g>
<path class="st1" d="M6.3476,19.0957c0.2025-1.7924,1.693-2.9532,3.5152-2.7474c1.6254,0.1836,2.6022,1.2848,2.7004,2.5606
	l-1.3351-0.1508c-0.0733-0.5818-0.6242-1.1001-1.4737-1.196c-1.0732-0.1213-1.9611,0.58-2.0857,1.6829
	c-0.1238,1.0958,0.5845,1.9846,1.6577,2.1058c0.8495,0.096,1.6093-0.3846,1.7704-0.9098l1.3351,0.1509
	c-0.3156,1.1688-1.6313,2.1529-3.2708,1.9677C7.3388,22.3537,6.1451,20.8882,6.3476,19.0957z"/>
<path class="st1" d="M15.5025,7.5775l2.2753-0.3883c1.9425-0.3315,3.3499,0.6656,3.6462,2.4016
	c0.2958,1.7332-0.7025,3.1336-2.6449,3.4651l-2.2753,0.3883L15.5025,7.5775z M18.6024,11.8936
	c1.1222-0.1915,1.7039-0.9499,1.5112-2.0792c-0.193-1.1306-0.9945-1.6602-2.1167-1.4687L17.011,8.514l0.6055,3.5478L18.6024,11.8936
	z"/>
<path class="st1" d="M6.7866,4.088L6.3152,8.8407L9.2729,9.134l-0.116,1.1697L4.8777,9.8793l0.5875-5.9224L6.7866,4.088z"/>
</svg>
