<?xml version="1.0" encoding="utf-8"?>
<!-- Generator: Adobe Illustrator 25.2.1, SVG Export Plug-In . SVG Version: 6.00 Build 0)  -->
<svg version="1.1" id="Layer_1" xmlns="http://www.w3.org/2000/svg" xmlns:xlink="http://www.w3.org/1999/xlink" x="0px" y="0px"
	 viewBox="0 0 25 25" style="enable-background:new 0 0 25 25;" xml:space="preserve">
<style type="text/css">
	.st0{fill:#999999;}
	.st1{fill:#666666;}
	.st2{fill:#FFFFFF;}
</style>
<g>
	<path class="st0" d="M12.328,9C14.353,9,16,10.647,16,12.672s-1.647,3.672-3.672,3.672s-3.672-1.647-3.672-3.672S10.303,9,12.328,9
		 M12.328,1C5.881,1,0.656,6.226,0.656,12.672s5.226,11.672,11.672,11.672S24,19.119,24,12.672S18.774,1,12.328,1L12.328,1z"/>
</g>
<g>
	<path class="st1" d="M12.328,2.634c5.535,0,10.038,4.503,10.038,10.038S17.863,22.71,12.328,22.71S2.29,18.207,2.29,12.672
		S6.793,2.634,12.328,2.634 M12.328,2.459c-5.641,0-10.213,4.573-10.213,10.213s4.573,10.213,10.213,10.213
		s10.213-4.573,10.213-10.213S17.968,2.459,12.328,2.459L12.328,2.459z"/>
</g>
<g>
	<path class="st1" d="M12.328,4.093c4.731,0,8.579,3.849,8.579,8.579s-3.849,8.579-8.579,8.579s-8.579-3.849-8.579-8.579
		S7.597,4.093,12.328,4.093 M12.328,3.918c-4.835,0-8.754,3.919-8.754,8.754c0,4.835,3.919,8.754,8.754,8.754
		s8.754-3.919,8.754-8.754C21.082,7.837,17.163,3.918,12.328,3.918L12.328,3.918z"/>
</g>
<g>
	<path class="st1" d="M12.328,5.552c3.926,0,7.12,3.194,7.12,7.12s-3.194,7.12-7.12,7.12s-7.12-3.194-7.12-7.12
		S8.402,5.552,12.328,5.552 M12.328,5.377c-4.029,0-7.295,3.266-7.295,7.295s3.266,7.295,7.295,7.295s7.295-3.266,7.295-7.295
		S16.357,5.377,12.328,5.377L12.328,5.377z"/>
</g>
<g>
	<path class="st1" d="M12.328,7.036c3.108,0,5.636,2.528,5.636,5.636s-2.528,5.636-5.636,5.636s-5.636-2.528-5.636-5.636
		S9.22,7.036,12.328,7.036 M12.328,6.836c-3.223,0-5.836,2.613-5.836,5.836s2.613,5.836,5.836,5.836
		c3.223,0,5.836-2.613,5.836-5.836S15.551,6.836,12.328,6.836L12.328,6.836z"/>
</g>
<path class="st2" d="M6.348,19.096c0.203-1.792,1.693-2.953,3.515-2.747c1.625,0.184,2.602,1.285,2.7,2.561l-1.335-0.151
	c-0.073-0.582-0.624-1.1-1.474-1.196c-1.073-0.121-1.961,0.58-2.086,1.683c-0.124,1.096,0.584,1.985,1.658,2.106
	c0.849,0.096,1.609-0.385,1.77-0.91l1.335,0.151c-0.316,1.169-1.631,2.153-3.271,1.968C7.339,22.354,6.145,20.888,6.348,19.096z"/>
<path class="st2" d="M15.503,7.578l2.275-0.388c1.942-0.332,3.35,0.666,3.646,2.402c0.296,1.733-0.702,3.134-2.645,3.465
	l-2.275,0.388L15.503,7.578z M18.602,11.894c1.122-0.192,1.704-0.95,1.511-2.079c-0.193-1.131-0.994-1.66-2.117-1.469l-0.986,0.168
	l0.605,3.548L18.602,11.894z"/>
<path class="st2" d="M6.787,4.088L6.315,8.841l2.958,0.293l-0.116,1.17L4.878,9.879l0.587-5.922L6.787,4.088z"/>
</svg>
